# xmcd
#
# Track frame offsets:
#	150
#	12717
#	26054
#	33885
#	44128
#	55942
#	64159
#	73452
#	87408
#	99083
#	111662
#	124047
#	137805
#	149917
#	162603
#	181657
#	196455
#	213667
#	227766
#	238544
#
# Disc length: 3409 seconds
#
# Revision: 0
# Processed by: cddbd v1.5.2PL0 Copyright (c) Steve Scherf et al.
# Submitted via: SynApp - FreeCDDB Version: 2.5
#
DISCID=3c0d4f14
DTITLE=Johnny Cash - Man In Black 1
DYEAR=0
DGENRE=Country
TTITLE0=Johnny Cash - Folsom Prison Blues
TTITLE1=Johnny Cash - I Walk The Line
TTITLE2=Johnny Cash - Guess Things Happen that Way
TTITLE3=Johnny Cash - Get Rhythm
TTITLE4=Johnny Cash - I Still Miss Someone
TTITLE5=Johnny Cash - Five Feet High And Rising
TTITLE6=Johnny Cash - I Got Stripes
TTITLE7=Johnny Cash - Don't take your guns to town
TTITLE8=Jonny Cash - Ring of fire
TTITLE9=Jonny Cash - Jackson
TTITLE10=Johnny Cash - Jackson
TTITLE11=Johnny Cash - Tennesee Flat Top Box
TTITLE12=Johnny Cash - When It's Springtime In Alaska
TTITLE13=Johnny Cash - San Quintin
TTITLE14=Johnny Cash - The Balled Of Ira Hayes
TTITLE15=Johnny Cash- - The Long Black Vail
TTITLE16=Johnny Cash - A Boy Named Sue
TTITLE17=Johnny Cash - Orange Blossom Special
TTITLE18=Johnny Cash - Daddy Sang Bass
TTITLE19=Johnny Cash - Where Were You
EXTD=
EXTT0=
EXTT1=
EXTT2=
EXTT3=
EXTT4=
EXTT5=
EXTT6=
EXTT7=
EXTT8=
EXTT9=
EXTT10=
EXTT11=
EXTT12=
EXTT13=
EXTT14=
EXTT15=
EXTT16=
EXTT17=
EXTT18=
EXTT19=
PLAYORDER=
